<mxfile host="app.diagrams.net" agent="Mozilla/5.0 (X11; Linux x86_64) AppleWebKit/537.36 (KHTML, like Gecko) Chrome/135.0.0.0 Safari/537.36" version="26.2.13">
  <diagram name="Page-1" id="t_ZjzlIveFX3uH3_dq2D">
    <mxGraphModel dx="1079" dy="534" grid="1" gridSize="10" guides="1" tooltips="1" connect="1" arrows="1" fold="1" page="1" pageScale="1" pageWidth="1100" pageHeight="850" math="0" shadow="0">
      <root>
        <mxCell id="0" />
        <mxCell id="1" parent="0" />
        <mxCell id="zs9EAOEydHOi7VpU9RvZ-1" value="&lt;font&gt;USER&lt;/font&gt;" style="rounded=0;whiteSpace=wrap;html=1;fillColor=none;fontSize=11;" parent="1" vertex="1">
          <mxGeometry x="220" y="260.5" width="90" height="40" as="geometry" />
        </mxCell>
        <mxCell id="zs9EAOEydHOi7VpU9RvZ-2" value="" style="ellipse;whiteSpace=wrap;html=1;aspect=fixed;fillColor=light-dark(#FFFFFF,#FFFFFF);fontSize=11;" parent="1" vertex="1">
          <mxGeometry x="185" y="240.5" width="10" height="10" as="geometry" />
        </mxCell>
        <mxCell id="zs9EAOEydHOi7VpU9RvZ-3" value="id" style="text;html=1;align=center;verticalAlign=middle;resizable=0;points=[];autosize=1;strokeColor=none;fillColor=none;fontSize=11;" parent="1" vertex="1">
          <mxGeometry x="160" y="230.5" width="30" height="30" as="geometry" />
        </mxCell>
        <mxCell id="zs9EAOEydHOi7VpU9RvZ-4" value="email" style="text;html=1;align=center;verticalAlign=middle;resizable=0;points=[];autosize=1;strokeColor=none;fillColor=none;fontSize=11;" parent="1" vertex="1">
          <mxGeometry x="140" y="250.5" width="50" height="30" as="geometry" />
        </mxCell>
        <mxCell id="zs9EAOEydHOi7VpU9RvZ-5" value="" style="endArrow=none;html=1;rounded=0;entryX=1;entryY=0.5;entryDx=0;entryDy=0;fontSize=11;" parent="1" target="zs9EAOEydHOi7VpU9RvZ-2" edge="1">
          <mxGeometry width="50" height="50" relative="1" as="geometry">
            <mxPoint x="220" y="260.5" as="sourcePoint" />
            <mxPoint x="175.00000000000455" y="265.5" as="targetPoint" />
            <Array as="points">
              <mxPoint x="205" y="245.5" />
            </Array>
          </mxGeometry>
        </mxCell>
        <mxCell id="zs9EAOEydHOi7VpU9RvZ-6" value="" style="endArrow=none;html=1;rounded=0;entryX=1;entryY=0.5;entryDx=0;entryDy=0;exitX=0;exitY=0.5;exitDx=0;exitDy=0;fontSize=11;" parent="1" edge="1">
          <mxGeometry width="50" height="50" relative="1" as="geometry">
            <mxPoint x="220" y="265.3" as="sourcePoint" />
            <mxPoint x="190" y="265.3" as="targetPoint" />
          </mxGeometry>
        </mxCell>
        <mxCell id="zs9EAOEydHOi7VpU9RvZ-7" value="password" style="text;html=1;align=center;verticalAlign=middle;resizable=0;points=[];autosize=1;strokeColor=none;fillColor=none;fontSize=11;" parent="1" vertex="1">
          <mxGeometry x="120" y="270.5" width="70" height="30" as="geometry" />
        </mxCell>
        <mxCell id="zs9EAOEydHOi7VpU9RvZ-9" value="" style="ellipse;whiteSpace=wrap;html=1;aspect=fixed;fillColor=light-dark(#FFFFFF,#FFFFFF);fontSize=11;" parent="1" vertex="1">
          <mxGeometry x="185" y="260.5" width="10" height="10" as="geometry" />
        </mxCell>
        <mxCell id="zs9EAOEydHOi7VpU9RvZ-10" value="&lt;font style=&quot;font-size: 11px;&quot;&gt;(0, n)&lt;/font&gt;" style="text;html=1;align=center;verticalAlign=middle;resizable=0;points=[];autosize=1;strokeColor=none;fillColor=none;" parent="1" vertex="1">
          <mxGeometry x="589" y="245" width="50" height="30" as="geometry" />
        </mxCell>
        <mxCell id="zs9EAOEydHOi7VpU9RvZ-11" value="" style="endArrow=none;html=1;rounded=0;entryX=-0.006;entryY=0.889;entryDx=0;entryDy=0;exitX=1;exitY=0.5;exitDx=0;exitDy=0;fontSize=11;entryPerimeter=0;" parent="1" source="zs9EAOEydHOi7VpU9RvZ-13" target="zs9EAOEydHOi7VpU9RvZ-1" edge="1">
          <mxGeometry width="50" height="50" relative="1" as="geometry">
            <mxPoint x="210" y="308.5" as="sourcePoint" />
            <mxPoint x="230" y="323.5" as="targetPoint" />
            <Array as="points">
              <mxPoint x="205" y="308" />
            </Array>
          </mxGeometry>
        </mxCell>
        <mxCell id="zs9EAOEydHOi7VpU9RvZ-12" value="name" style="text;html=1;align=center;verticalAlign=middle;resizable=0;points=[];autosize=1;strokeColor=none;fillColor=none;fontSize=11;" parent="1" vertex="1">
          <mxGeometry x="140" y="290.5" width="50" height="30" as="geometry" />
        </mxCell>
        <mxCell id="zs9EAOEydHOi7VpU9RvZ-13" value="" style="ellipse;whiteSpace=wrap;html=1;aspect=fixed;fillColor=none;fontSize=11;" parent="1" vertex="1">
          <mxGeometry x="185" y="302.5" width="10" height="10" as="geometry" />
        </mxCell>
        <mxCell id="zs9EAOEydHOi7VpU9RvZ-14" value="&lt;font&gt;POST&lt;/font&gt;" style="rounded=0;whiteSpace=wrap;html=1;fillColor=none;fontSize=11;" parent="1" vertex="1">
          <mxGeometry x="790" y="260.5" width="90" height="40" as="geometry" />
        </mxCell>
        <mxCell id="zs9EAOEydHOi7VpU9RvZ-15" value="&lt;font&gt;follows&lt;/font&gt;" style="shape=rhombus;perimeter=rhombusPerimeter;whiteSpace=wrap;html=1;align=center;fillColor=none;fontSize=11;" parent="1" vertex="1">
          <mxGeometry x="495" y="120" width="100" height="50" as="geometry" />
        </mxCell>
        <mxCell id="zs9EAOEydHOi7VpU9RvZ-16" value="" style="endArrow=none;html=1;rounded=0;entryX=0;entryY=0.5;entryDx=0;entryDy=0;exitX=0;exitY=0.25;exitDx=0;exitDy=0;fontSize=11;" parent="1" source="zs9EAOEydHOi7VpU9RvZ-56" target="zs9EAOEydHOi7VpU9RvZ-15" edge="1">
          <mxGeometry width="50" height="50" relative="1" as="geometry">
            <mxPoint x="630" y="290" as="sourcePoint" />
            <mxPoint x="690" y="290" as="targetPoint" />
            <Array as="points">
              <mxPoint x="460" y="270" />
              <mxPoint x="460" y="145" />
            </Array>
          </mxGeometry>
        </mxCell>
        <mxCell id="zs9EAOEydHOi7VpU9RvZ-17" value="" style="endArrow=none;html=1;rounded=0;entryX=1;entryY=0.25;entryDx=0;entryDy=0;exitX=1;exitY=0.5;exitDx=0;exitDy=0;fontSize=11;" parent="1" source="zs9EAOEydHOi7VpU9RvZ-15" target="zs9EAOEydHOi7VpU9RvZ-56" edge="1">
          <mxGeometry width="50" height="50" relative="1" as="geometry">
            <mxPoint x="427" y="309" as="sourcePoint" />
            <mxPoint x="725" y="300" as="targetPoint" />
            <Array as="points">
              <mxPoint x="630" y="145" />
              <mxPoint x="630" y="270" />
            </Array>
          </mxGeometry>
        </mxCell>
        <mxCell id="zs9EAOEydHOi7VpU9RvZ-18" value="&lt;font style=&quot;font-size: 11px;&quot;&gt;(1,1)&lt;/font&gt;" style="text;html=1;align=center;verticalAlign=middle;resizable=0;points=[];autosize=1;strokeColor=none;fillColor=none;" parent="1" vertex="1">
          <mxGeometry x="458" y="271.5" width="50" height="30" as="geometry" />
        </mxCell>
        <mxCell id="zs9EAOEydHOi7VpU9RvZ-19" value="uploads" style="shape=rhombus;perimeter=rhombusPerimeter;whiteSpace=wrap;html=1;align=center;fillColor=none;fontSize=11;" parent="1" vertex="1">
          <mxGeometry x="645" y="257.5" width="100" height="45" as="geometry" />
        </mxCell>
        <mxCell id="zs9EAOEydHOi7VpU9RvZ-20" value="" style="endArrow=none;html=1;rounded=0;entryX=1;entryY=0.5;entryDx=0;entryDy=0;exitX=0;exitY=0.5;exitDx=0;exitDy=0;fontSize=11;" parent="1" source="zs9EAOEydHOi7VpU9RvZ-14" target="zs9EAOEydHOi7VpU9RvZ-19" edge="1">
          <mxGeometry width="50" height="50" relative="1" as="geometry">
            <mxPoint x="485" y="309.5" as="sourcePoint" />
            <mxPoint x="780" y="290" as="targetPoint" />
            <Array as="points" />
          </mxGeometry>
        </mxCell>
        <mxCell id="zs9EAOEydHOi7VpU9RvZ-21" value="(1,1)" style="text;html=1;align=center;verticalAlign=middle;resizable=0;points=[];autosize=1;strokeColor=none;fillColor=none;" parent="1" vertex="1">
          <mxGeometry x="746" y="273" width="50" height="30" as="geometry" />
        </mxCell>
        <mxCell id="zs9EAOEydHOi7VpU9RvZ-22" value="&lt;font style=&quot;font-size: 11px;&quot;&gt;(0,n)&lt;/font&gt;" style="text;html=1;align=center;verticalAlign=middle;resizable=0;points=[];autosize=1;strokeColor=none;fillColor=none;" parent="1" vertex="1">
          <mxGeometry x="580" y="274" width="50" height="30" as="geometry" />
        </mxCell>
        <mxCell id="zs9EAOEydHOi7VpU9RvZ-23" value="" style="endArrow=none;html=1;rounded=0;exitX=1;exitY=0.25;exitDx=0;exitDy=0;fontSize=11;entryX=0;entryY=0.5;entryDx=0;entryDy=0;" parent="1" source="zs9EAOEydHOi7VpU9RvZ-14" target="zs9EAOEydHOi7VpU9RvZ-24" edge="1">
          <mxGeometry width="50" height="50" relative="1" as="geometry">
            <mxPoint x="883" y="269.5" as="sourcePoint" />
            <mxPoint x="873.08" y="364.5" as="targetPoint" />
            <Array as="points" />
          </mxGeometry>
        </mxCell>
        <mxCell id="zs9EAOEydHOi7VpU9RvZ-24" value="" style="ellipse;whiteSpace=wrap;html=1;aspect=fixed;fillColor=none;fontSize=11;" parent="1" vertex="1">
          <mxGeometry x="918" y="264.5" width="10" height="10" as="geometry" />
        </mxCell>
        <mxCell id="zs9EAOEydHOi7VpU9RvZ-25" value="" style="endArrow=none;html=1;rounded=0;fontSize=11;entryX=0;entryY=0.5;entryDx=0;entryDy=0;exitX=1.003;exitY=0.598;exitDx=0;exitDy=0;exitPerimeter=0;" parent="1" source="zs9EAOEydHOi7VpU9RvZ-14" target="zs9EAOEydHOi7VpU9RvZ-26" edge="1">
          <mxGeometry width="50" height="50" relative="1" as="geometry">
            <mxPoint x="883" y="279.5" as="sourcePoint" />
            <mxPoint x="853.08" y="364.5" as="targetPoint" />
            <Array as="points">
              <mxPoint x="898" y="287.5" />
            </Array>
          </mxGeometry>
        </mxCell>
        <mxCell id="zs9EAOEydHOi7VpU9RvZ-26" value="" style="ellipse;whiteSpace=wrap;html=1;aspect=fixed;fillColor=none;fontSize=11;" parent="1" vertex="1">
          <mxGeometry x="918" y="282.5" width="10" height="10" as="geometry" />
        </mxCell>
        <mxCell id="zs9EAOEydHOi7VpU9RvZ-27" value="created_at" style="text;html=1;align=left;verticalAlign=middle;resizable=0;points=[];autosize=1;strokeColor=none;fillColor=none;" parent="1" vertex="1">
          <mxGeometry x="928" y="252.5" width="80" height="30" as="geometry" />
        </mxCell>
        <mxCell id="zs9EAOEydHOi7VpU9RvZ-28" value="description" style="text;html=1;align=center;verticalAlign=middle;resizable=0;points=[];autosize=1;strokeColor=none;fillColor=none;" parent="1" vertex="1">
          <mxGeometry x="918" y="272.5" width="80" height="30" as="geometry" />
        </mxCell>
        <mxCell id="zs9EAOEydHOi7VpU9RvZ-29" value="(0,1)" style="text;html=1;align=left;verticalAlign=middle;resizable=0;points=[];autosize=1;strokeColor=none;fillColor=none;fontSize=11;rotation=0;" parent="1" vertex="1">
          <mxGeometry x="894" y="278.5" width="50" height="30" as="geometry" />
        </mxCell>
        <mxCell id="zs9EAOEydHOi7VpU9RvZ-30" value="" style="endArrow=none;html=1;rounded=0;fontSize=11;exitX=1;exitY=1;exitDx=0;exitDy=0;entryX=0;entryY=0.5;entryDx=0;entryDy=0;" parent="1" source="zs9EAOEydHOi7VpU9RvZ-14" target="zs9EAOEydHOi7VpU9RvZ-31" edge="1">
          <mxGeometry width="50" height="50" relative="1" as="geometry">
            <mxPoint x="806" y="304.5" as="sourcePoint" />
            <mxPoint x="808" y="414.5" as="targetPoint" />
            <Array as="points">
              <mxPoint x="898" y="313.5" />
            </Array>
          </mxGeometry>
        </mxCell>
        <mxCell id="zs9EAOEydHOi7VpU9RvZ-31" value="" style="ellipse;whiteSpace=wrap;html=1;aspect=fixed;fillColor=none;fontSize=11;" parent="1" vertex="1">
          <mxGeometry x="918" y="308.5" width="10" height="10" as="geometry" />
        </mxCell>
        <mxCell id="zs9EAOEydHOi7VpU9RvZ-32" value="image" style="text;html=1;align=left;verticalAlign=middle;resizable=0;points=[];autosize=1;strokeColor=none;fillColor=none;" parent="1" vertex="1">
          <mxGeometry x="928" y="298.5" width="60" height="30" as="geometry" />
        </mxCell>
        <mxCell id="zs9EAOEydHOi7VpU9RvZ-33" value="(0,10)" style="text;html=1;align=center;verticalAlign=middle;resizable=0;points=[];autosize=1;strokeColor=none;fillColor=none;fontSize=11;rotation=0;" parent="1" vertex="1">
          <mxGeometry x="880" y="305.5" width="50" height="30" as="geometry" />
        </mxCell>
        <mxCell id="zs9EAOEydHOi7VpU9RvZ-34" value="" style="endArrow=none;html=1;rounded=0;fontSize=11;entryX=0;entryY=0.5;entryDx=0;entryDy=0;exitX=1;exitY=0;exitDx=0;exitDy=0;" parent="1" source="zs9EAOEydHOi7VpU9RvZ-14" target="zs9EAOEydHOi7VpU9RvZ-35" edge="1">
          <mxGeometry width="50" height="50" relative="1" as="geometry">
            <mxPoint x="888" y="354.5" as="sourcePoint" />
            <mxPoint x="888" y="364.5" as="targetPoint" />
            <Array as="points">
              <mxPoint x="898" y="249.5" />
            </Array>
          </mxGeometry>
        </mxCell>
        <mxCell id="zs9EAOEydHOi7VpU9RvZ-35" value="" style="ellipse;whiteSpace=wrap;html=1;aspect=fixed;fillColor=light-dark(#FFFFFF,#FFFFFF);fontSize=11;direction=east;" parent="1" vertex="1">
          <mxGeometry x="918" y="244.5" width="10" height="10" as="geometry" />
        </mxCell>
        <mxCell id="zs9EAOEydHOi7VpU9RvZ-36" value="id" style="text;html=1;align=left;verticalAlign=middle;resizable=0;points=[];autosize=1;strokeColor=none;fillColor=none;" parent="1" vertex="1">
          <mxGeometry x="930" y="234.5" width="30" height="30" as="geometry" />
        </mxCell>
        <mxCell id="zs9EAOEydHOi7VpU9RvZ-37" value="" style="endArrow=none;html=1;rounded=0;exitX=0.5;exitY=1;exitDx=0;exitDy=0;fontSize=11;entryX=0;entryY=0.5;entryDx=0;entryDy=0;" parent="1" source="zs9EAOEydHOi7VpU9RvZ-56" target="zs9EAOEydHOi7VpU9RvZ-38" edge="1">
          <mxGeometry width="50" height="50" relative="1" as="geometry">
            <mxPoint x="408.75" y="302.5" as="sourcePoint" />
            <mxPoint x="221.25" y="592.5" as="targetPoint" />
            <Array as="points">
              <mxPoint x="545" y="368" />
            </Array>
          </mxGeometry>
        </mxCell>
        <mxCell id="zs9EAOEydHOi7VpU9RvZ-38" value="comments" style="shape=rhombus;perimeter=rhombusPerimeter;whiteSpace=wrap;html=1;align=center;fillColor=none;fontSize=11;" parent="1" vertex="1">
          <mxGeometry x="645" y="345.5" width="100" height="45" as="geometry" />
        </mxCell>
        <mxCell id="zs9EAOEydHOi7VpU9RvZ-39" value="" style="endArrow=none;html=1;rounded=0;fontSize=11;entryX=1;entryY=0.5;entryDx=0;entryDy=0;exitX=0.5;exitY=1;exitDx=0;exitDy=0;" parent="1" source="zs9EAOEydHOi7VpU9RvZ-14" target="zs9EAOEydHOi7VpU9RvZ-38" edge="1">
          <mxGeometry width="50" height="50" relative="1" as="geometry">
            <mxPoint x="694.19" y="341.02000000000004" as="sourcePoint" />
            <mxPoint x="445" y="491" as="targetPoint" />
            <Array as="points">
              <mxPoint x="835" y="368" />
            </Array>
          </mxGeometry>
        </mxCell>
        <mxCell id="zs9EAOEydHOi7VpU9RvZ-40" value="&lt;font style=&quot;font-size: 11px;&quot;&gt;(1,1)&lt;/font&gt;" style="text;html=1;align=center;verticalAlign=middle;resizable=0;points=[];autosize=1;strokeColor=none;fillColor=none;" parent="1" vertex="1">
          <mxGeometry x="300" y="271.5" width="50" height="30" as="geometry" />
        </mxCell>
        <mxCell id="zs9EAOEydHOi7VpU9RvZ-41" value="" style="endArrow=none;html=1;rounded=0;exitX=0.445;exitY=0.935;exitDx=0;exitDy=0;fontSize=11;entryX=0.5;entryY=0;entryDx=0;entryDy=0;exitPerimeter=0;" parent="1" source="zs9EAOEydHOi7VpU9RvZ-38" target="zs9EAOEydHOi7VpU9RvZ-42" edge="1">
          <mxGeometry width="50" height="50" relative="1" as="geometry">
            <mxPoint x="405" y="376.5" as="sourcePoint" />
            <mxPoint x="555" y="415.5" as="targetPoint" />
            <Array as="points" />
          </mxGeometry>
        </mxCell>
        <mxCell id="zs9EAOEydHOi7VpU9RvZ-42" value="" style="ellipse;whiteSpace=wrap;html=1;aspect=fixed;fillColor=none;fontSize=11;" parent="1" vertex="1">
          <mxGeometry x="685" y="420.5" width="10" height="10" as="geometry" />
        </mxCell>
        <mxCell id="zs9EAOEydHOi7VpU9RvZ-43" value="content" style="text;html=1;align=center;verticalAlign=middle;resizable=0;points=[];autosize=1;strokeColor=none;fillColor=none;" parent="1" vertex="1">
          <mxGeometry x="690" y="410.5" width="60" height="30" as="geometry" />
        </mxCell>
        <mxCell id="zs9EAOEydHOi7VpU9RvZ-44" value="" style="endArrow=none;html=1;rounded=0;exitX=0.644;exitY=0.869;exitDx=0;exitDy=0;fontSize=11;exitPerimeter=0;entryX=0.5;entryY=0;entryDx=0;entryDy=0;" parent="1" source="zs9EAOEydHOi7VpU9RvZ-38" target="zs9EAOEydHOi7VpU9RvZ-45" edge="1">
          <mxGeometry width="50" height="50" relative="1" as="geometry">
            <mxPoint x="595" y="440.5" as="sourcePoint" />
            <mxPoint x="630" y="477.5" as="targetPoint" />
            <Array as="points" />
          </mxGeometry>
        </mxCell>
        <mxCell id="zs9EAOEydHOi7VpU9RvZ-45" value="" style="ellipse;whiteSpace=wrap;html=1;aspect=fixed;fillColor=none;fontSize=11;" parent="1" vertex="1">
          <mxGeometry x="705" y="400.5" width="10" height="10" as="geometry" />
        </mxCell>
        <mxCell id="zs9EAOEydHOi7VpU9RvZ-46" value="created_at" style="text;html=1;align=center;verticalAlign=middle;resizable=0;points=[];autosize=1;strokeColor=none;fillColor=none;" parent="1" vertex="1">
          <mxGeometry x="705" y="390.5" width="80" height="30" as="geometry" />
        </mxCell>
        <mxCell id="zs9EAOEydHOi7VpU9RvZ-51" value="" style="endArrow=none;html=1;rounded=0;entryX=1;entryY=0.5;entryDx=0;entryDy=0;exitX=-0.004;exitY=0.625;exitDx=0;exitDy=0;fontSize=11;exitPerimeter=0;" parent="1" source="zs9EAOEydHOi7VpU9RvZ-1" edge="1">
          <mxGeometry width="50" height="50" relative="1" as="geometry">
            <mxPoint x="230" y="275.3" as="sourcePoint" />
            <mxPoint x="195" y="285.5" as="targetPoint" />
          </mxGeometry>
        </mxCell>
        <mxCell id="zs9EAOEydHOi7VpU9RvZ-52" value="&lt;font style=&quot;font-size: 11px;&quot;&gt;(0, n)&lt;/font&gt;" style="text;html=1;align=center;verticalAlign=middle;resizable=0;points=[];autosize=1;strokeColor=none;fillColor=none;" parent="1" vertex="1">
          <mxGeometry x="451" y="245" width="50" height="30" as="geometry" />
        </mxCell>
        <mxCell id="zs9EAOEydHOi7VpU9RvZ-53" value="" style="endArrow=none;html=1;rounded=0;fontSize=11;exitX=1;exitY=0.5;exitDx=0;exitDy=0;entryX=0;entryY=0.5;entryDx=0;entryDy=0;" parent="1" source="zs9EAOEydHOi7VpU9RvZ-56" target="zs9EAOEydHOi7VpU9RvZ-19" edge="1">
          <mxGeometry width="50" height="50" relative="1" as="geometry">
            <mxPoint x="409" y="309" as="sourcePoint" />
            <mxPoint x="540" y="300" as="targetPoint" />
            <Array as="points" />
          </mxGeometry>
        </mxCell>
        <mxCell id="zs9EAOEydHOi7VpU9RvZ-55" value="" style="endArrow=none;html=1;rounded=0;fontSize=11;exitX=1;exitY=0.5;exitDx=0;exitDy=0;entryX=0;entryY=0.5;entryDx=0;entryDy=0;" parent="1" source="zs9EAOEydHOi7VpU9RvZ-1" target="zs9EAOEydHOi7VpU9RvZ-54" edge="1">
          <mxGeometry width="50" height="50" relative="1" as="geometry">
            <mxPoint x="310" y="291" as="sourcePoint" />
            <mxPoint x="350" y="280.5" as="targetPoint" />
            <Array as="points" />
          </mxGeometry>
        </mxCell>
        <mxCell id="zs9EAOEydHOi7VpU9RvZ-54" value="has" style="shape=rhombus;perimeter=rhombusPerimeter;whiteSpace=wrap;html=1;align=center;fillColor=none;fontSize=11;" parent="1" vertex="1">
          <mxGeometry x="350" y="258" width="100" height="45" as="geometry" />
        </mxCell>
        <mxCell id="zs9EAOEydHOi7VpU9RvZ-56" value="&lt;font&gt;PROFILE&lt;/font&gt;" style="rounded=0;whiteSpace=wrap;html=1;fillColor=none;fontSize=11;" parent="1" vertex="1">
          <mxGeometry x="500" y="260.5" width="90" height="40" as="geometry" />
        </mxCell>
        <mxCell id="zs9EAOEydHOi7VpU9RvZ-57" value="" style="endArrow=none;html=1;rounded=0;fontSize=11;exitX=1;exitY=0.5;exitDx=0;exitDy=0;entryX=0;entryY=0.5;entryDx=0;entryDy=0;" parent="1" source="zs9EAOEydHOi7VpU9RvZ-54" target="zs9EAOEydHOi7VpU9RvZ-56" edge="1">
          <mxGeometry width="50" height="50" relative="1" as="geometry">
            <mxPoint x="330" y="301" as="sourcePoint" />
            <mxPoint x="360" y="301" as="targetPoint" />
            <Array as="points" />
          </mxGeometry>
        </mxCell>
        <mxCell id="zs9EAOEydHOi7VpU9RvZ-61" value="" style="endArrow=none;html=1;rounded=0;fontSize=11;entryX=0.5;entryY=1;entryDx=0;entryDy=0;" parent="1" target="zs9EAOEydHOi7VpU9RvZ-62" edge="1">
          <mxGeometry width="50" height="50" relative="1" as="geometry">
            <mxPoint x="557" y="260.52" as="sourcePoint" />
            <mxPoint x="377" y="226.02" as="targetPoint" />
            <Array as="points" />
          </mxGeometry>
        </mxCell>
        <mxCell id="zs9EAOEydHOi7VpU9RvZ-62" value="" style="ellipse;whiteSpace=wrap;html=1;aspect=fixed;fillColor=none;fontSize=11;" parent="1" vertex="1">
          <mxGeometry x="552" y="231.02" width="10" height="10" as="geometry" />
        </mxCell>
        <mxCell id="zs9EAOEydHOi7VpU9RvZ-64" value="" style="endArrow=none;html=1;rounded=0;exitX=0.419;exitY=0.001;exitDx=0;exitDy=0;fontSize=11;exitPerimeter=0;entryX=0.5;entryY=0;entryDx=0;entryDy=0;" parent="1" source="zs9EAOEydHOi7VpU9RvZ-56" edge="1">
          <mxGeometry width="50" height="50" relative="1" as="geometry">
            <mxPoint x="537.8500000000001" y="261.02" as="sourcePoint" />
            <mxPoint x="537" y="215.02" as="targetPoint" />
            <Array as="points" />
          </mxGeometry>
        </mxCell>
        <mxCell id="zs9EAOEydHOi7VpU9RvZ-68" value="picture" style="text;html=1;align=left;verticalAlign=middle;resizable=0;points=[];autosize=1;strokeColor=none;fillColor=none;fontSize=11;" parent="1" vertex="1">
          <mxGeometry x="562" y="221.5" width="60" height="30" as="geometry" />
        </mxCell>
        <mxCell id="zs9EAOEydHOi7VpU9RvZ-71" value="(0,1)" style="text;html=1;align=center;verticalAlign=middle;resizable=0;points=[];autosize=1;strokeColor=none;fillColor=none;fontSize=10;rotation=0;" parent="1" vertex="1">
          <mxGeometry x="549" y="236.5" width="40" height="30" as="geometry" />
        </mxCell>
        <mxCell id="zs9EAOEydHOi7VpU9RvZ-76" value="" style="endArrow=none;html=1;rounded=0;exitX=0.5;exitY=1;exitDx=0;exitDy=0;fontSize=11;entryX=0.176;entryY=-0.017;entryDx=0;entryDy=0;entryPerimeter=0;" parent="1" source="zs9EAOEydHOi7VpU9RvZ-79" target="zs9EAOEydHOi7VpU9RvZ-56" edge="1">
          <mxGeometry width="50" height="50" relative="1" as="geometry">
            <mxPoint x="437" y="115.32000000000001" as="sourcePoint" />
            <mxPoint x="516" y="250" as="targetPoint" />
          </mxGeometry>
        </mxCell>
        <mxCell id="zs9EAOEydHOi7VpU9RvZ-77" value="username" style="text;html=1;align=center;verticalAlign=middle;resizable=0;points=[];autosize=1;strokeColor=none;fillColor=none;fontSize=11;" parent="1" vertex="1">
          <mxGeometry x="534" y="201.02" width="70" height="30" as="geometry" />
        </mxCell>
        <mxCell id="zs9EAOEydHOi7VpU9RvZ-78" value="" style="ellipse;whiteSpace=wrap;html=1;aspect=fixed;fillColor=light-dark(#FFFFFF,#FFFFFF);fontSize=11;" parent="1" vertex="1">
          <mxGeometry x="532" y="211.02" width="10" height="10" as="geometry" />
        </mxCell>
        <mxCell id="zs9EAOEydHOi7VpU9RvZ-79" value="" style="ellipse;whiteSpace=wrap;html=1;aspect=fixed;fillColor=light-dark(#FFFFFF,#FFFFFF);fontSize=11;" parent="1" vertex="1">
          <mxGeometry x="511" y="191.02" width="10" height="10" as="geometry" />
        </mxCell>
        <mxCell id="zs9EAOEydHOi7VpU9RvZ-82" value="id" style="text;html=1;align=center;verticalAlign=middle;resizable=0;points=[];autosize=1;strokeColor=none;fillColor=none;fontSize=11;" parent="1" vertex="1">
          <mxGeometry x="512" y="181.02" width="30" height="30" as="geometry" />
        </mxCell>
        <mxCell id="zs9EAOEydHOi7VpU9RvZ-83" value="&lt;font style=&quot;font-size: 11px;&quot;&gt;(0,n)&lt;/font&gt;" style="text;html=1;align=center;verticalAlign=middle;resizable=0;points=[];autosize=1;strokeColor=none;fillColor=none;" parent="1" vertex="1">
          <mxGeometry x="534" y="343.5" width="50" height="30" as="geometry" />
        </mxCell>
        <mxCell id="zs9EAOEydHOi7VpU9RvZ-84" value="&lt;font style=&quot;font-size: 11px;&quot;&gt;(0,n)&lt;/font&gt;" style="text;html=1;align=center;verticalAlign=middle;resizable=0;points=[];autosize=1;strokeColor=none;fillColor=none;" parent="1" vertex="1">
          <mxGeometry x="796" y="343.5" width="50" height="30" as="geometry" />
        </mxCell>
        <mxCell id="iu8c8HPtLgG6rIKrAn9J-3" value="" style="ellipse;whiteSpace=wrap;html=1;aspect=fixed;fillColor=none;fontSize=11;" vertex="1" parent="1">
          <mxGeometry x="185" y="280.5" width="10" height="10" as="geometry" />
        </mxCell>
      </root>
    </mxGraphModel>
  </diagram>
</mxfile>
